<?xml version="1.0" encoding="UTF-8" standalone="no"?>
<!DOCTYPE svg PUBLIC "-//W3C//DTD SVG 20010904//EN" "http://www.w3.org/TR/2001/REC-SVG-20010904/DTD/svg10.dtd">
<svg version="1.0" xmlns="http://www.w3.org/2000/svg" width="825.000000pt" height="599.000000pt" viewBox="0 0 825.000000 599.000000" preserveAspectRatio="xMidYMid meet">

<g transform="translate(0.000000,599.000000) scale(0.100000,-0.100000)" fill="#F15456" stroke="none">
<path d="M1212 4117 l-1072 -1072 0 -60 0 -60 1068 -1068 1067 -1067 60 0 60 0 1767 1767 1768 1768 670 -670 670 -670 -670 -670 -670 -670 -343 343 -342 342 -55 0 -55 0 -173 -173 -172 -172 0 -55 0 -55 543 -543 542 -542 55 0 55 0 1068 1068 1067 1067 0 60 0 60 -1068 1068 -1067 1067 -55 0 -55 0 -1770 -1770 -1770 -1770 -673 673 -672 672 675 675 675 675 338 -338 337 -337 55 0 55 0 173 173 172 172 0 55 0 55 -538 538 -537 537 -55 0 -55 0 -1073 -1073z"/>
</g>
</svg>